# xmcd CD database file
#
# Track frame offsets:
#	150
#	91575
#	107680
#	136977
#	160573
#	179763
#	218842
#	248943
#	262849
#	278739
#	305317
#	330149
#
# Disc length: 4689 seconds
#
# Revision: 0
# Processed by: cddbd v1.5.2PL0 Copyright (c) Steve Scherf et al.
# Submitted via: CDex 1.70beta2
#
DISCID=95124f0c
DTITLE=Tony Bennett - Radio Show and Interview - Homestory 1997 Showtime auf 88.8 [Disc 2]
DYEAR=1997
DGENRE=Jazz
TTITLE0=That's Entertainment - Einleitung
TTITLE1=Sweet Lorraine
TTITLE2=Beginn Teil 2 - Songaussagen
TTITLE3=Rio
TTITLE4=Concert In Harlem
TTITLE5=Concert Hall
TTITLE6=Lena Horne
TTITLE7=All Of Me - Der Gesegnete
TTITLE8=Blues In The Night - Die Mutter
TTITLE9=Fred Astaire Medley - Saloon Singer
TTITLE10=If I Ruled The World - Zufriedenheit
TTITLE11=Abspann
EXTD=YEAR: 1997
EXTT0=
EXTT1=
EXTT2=
EXTT3=
EXTT4=
EXTT5=
EXTT6=
EXTT7=
EXTT8=
EXTT9=
EXTT10=
EXTT11=
PLAYORDER=
